<svg width="32" height="32" viewBox="0 0 32 32" fill="none" xmlns="http://www.w3.org/2000/svg">
  <!-- Grapevine branch -->
  <path d="M8 16C8 12 12 8 16 8C20 8 24 12 24 16" stroke="#8B7355" stroke-width="2" stroke-linecap="round"/>
  
  <!-- Grape clusters -->
  <circle cx="10" cy="18" r="2" fill="#6B4423"/>
  <circle cx="12" cy="20" r="2" fill="#6B4423"/>
  <circle cx="14" cy="18" r="2" fill="#6B4423"/>
  <circle cx="16" cy="20" r="2" fill="#6B4423"/>
  <circle cx="18" cy="18" r="2" fill="#6B4423"/>
  <circle cx="20" cy="20" r="2" fill="#6B4423"/>
  <circle cx="22" cy="18" r="2" fill="#6B4423"/>
  
  <!-- Vine leaves -->
  <path d="M6 14C6 12 7 10 9 10C11 10 12 12 12 14" stroke="#5D4E37" stroke-width="1.5" fill="none" stroke-linecap="round"/>
  <path d="M20 14C20 12 21 10 23 10C25 10 26 12 26 14" stroke="#5D4E37" stroke-width="1.5" fill="none" stroke-linecap="round"/>
</svg> 